<svg id="Capa_1" enable-background="new 0 0 512.019 512.019" height="512" viewBox="0 0 512.019 512.019" width="512" xmlns="http://www.w3.org/2000/svg"><g><g><path d="m253.809 171.961h148.66c5.522 0 10-4.478 10-10v-40c0-5.522-4.478-10-10-10h-29.33c-5.522 0-10 4.478-10 10s4.478 10 10 10h19.33v20h-128.66v-20h19.33c5.522 0 10-4.478 10-10s-4.478-10-10-10h-29.33c-5.523 0-10 4.478-10 10v40c0 5.523 4.477 10 10 10z"/><path d="m253.809 219.009h148.66c5.522 0 10-4.478 10-10s-4.478-10-10-10h-148.66c-5.523 0-10 4.478-10 10s4.477 10 10 10z"/><path d="m284.732 246.057h-30.923c-5.523 0-10 4.478-10 10s4.477 10 10 10h30.923c5.522 0 10-4.478 10-10s-4.477-10-10-10z"/><path d="m165.596 173.449c5.46-7.138 8.714-16.05 8.714-25.711v-13.142c0-23.385-19.025-42.409-42.409-42.409s-42.409 19.024-42.409 42.409v13.142c0 9.661 3.254 18.573 8.714 25.711-31.337 9.537-54.206 38.699-54.206 73.111v9.497c0 5.522 4.477 10 10 10h155.801c5.523 0 10-4.478 10-10v-9.497c0-34.412-22.87-63.574-54.205-73.111zm-56.105-38.853c0-12.356 10.053-22.409 22.409-22.409s22.409 10.053 22.409 22.409v13.142c0 12.356-10.053 22.409-22.409 22.409s-22.409-10.053-22.409-22.409zm-45.489 111.461c.27-30.877 25.472-55.91 56.412-55.91h1.487v12.923c0 5.522 4.477 10 10 10s10-4.478 10-10v-12.923h1.487c30.939 0 56.142 25.033 56.412 55.91z"/><path d="m490.424 278.066-33.955-58.661v-142.396c0-27.57-22.43-50-50-50h-356.469c-27.57 0-50 22.43-50 50v224c0 27.57 22.43 50 50 50h285.678c-19.723 36.102-16.352 80.908 10.008 113.979l12.957 16.254c1.897 2.38 4.775 3.767 7.819 3.767h103.541c4.243 0 8.024-2.678 9.433-6.68l23.467-66.678c15.583-44.274 11.035-92.963-12.479-133.585zm-470.424 22.943v-224c0-16.542 13.458-30 30-30h356.469c16.542 0 30 13.458 30 30l-.012 243.194c0 7.062-5.744 12.806-12.806 12.806-7.061 0-12.805-5.744-12.805-12.806v-51.551c0-18.748-15.252-34-34-34s-34 15.252-34 34v62.356h-292.846c-16.542.001-30-13.457-30-29.999zm464.038 104.002-21.116 59.998h-91.643l-9.954-12.487c-24.147-30.294-24.389-72.802-.588-103.369 1.367-1.756 2.109-3.918 2.109-6.144v-74.356c0-7.72 6.28-14 14-14s14 6.28 14 14v51.551c0 18.089 14.717 32.806 32.806 32.806s32.805-14.717 32.805-32.806l.012-60.876 16.646 28.758c20.581 35.555 24.562 78.173 10.923 116.925z"/><circle cx="328.14" cy="121.963" r="10"/></g></g></svg>