<svg id="Layer_1" enable-background="new 0 0 512.002 512.002" height="512" viewBox="0 0 512.002 512.002" width="512" xmlns="http://www.w3.org/2000/svg"><g><path d="m449.162 220.215-23.161-17.512v-152.703c0-5.523-4.477-10-10-10h-30v-30c0-5.523-4.477-10-10-10h-240c-5.523 0-10 4.477-10 10v30h-30c-5.523 0-10 4.477-10 10v152.703l-23.161 17.512c-10.665 8.064-16.839 16.161-16.839 33.683v224.496c0 18.532 15.077 33.608 33.608 33.608h352.784c18.532 0 33.608-15.077 33.608-33.608v-224.496c0-17.523-6.174-25.619-16.839-33.683zm-383.161 80.325 83.755 63.326-83.755 63.326zm260 35.921-44.521-33.662c-7.399-5.586-16.199-8.538-25.437-8.538-.022 0-.045 0-.069 0-9.253 0-18.054 2.952-25.458 8.542l-44.516 33.658v-237.465c19.562-3.988 35.01-19.435 38.997-38.996h62.009c3.987 19.561 19.435 35.008 38.996 38.996v237.465zm120-35.921v126.651l-83.755-63.326zm-8.901-64.372c7.112 5.377 8.901 8.025 8.901 17.73v21.569l-20 15.121v-62.811zm-31.098-176.168v245.71l-20 15.122v-260.832zm-40.001-40v315.953l-20 15.122v-261.075c0-5.523-4.477-10-10-10-16.542 0-30-13.458-30-30 0-5.523-4.477-10-10-10h-80c-5.523 0-10 4.477-10 10 0 16.542-13.458 30-30 30-5.523 0-10 4.477-10 10v261.076l-20-15.122v-315.954zm-240 40v260.831l-20-15.122v-245.709zm-51.099 176.168 11.099-8.391v62.812l-20-15.122v-21.568c0-9.706 1.789-12.354 8.901-17.731zm357.491 255.834h-352.784c-7.504 0-13.608-6.104-13.608-13.608v-26.128l176.573-133.505c3.899-2.944 8.532-4.5 13.417-4.5 4.88-.008 9.529 1.548 13.432 4.495l176.578 133.508v26.129c0 7.504-6.105 13.609-13.608 13.609z"/><path d="m265.217 196.272-10.778-4.463c-4.923-1.915-7.493-8.122-5.366-12.958 1.005-2.427 2.914-4.325 5.375-5.345 2.462-1.02 5.154-1.027 7.581-.022l5.389 2.232c5.102 2.116 10.953-.309 13.066-5.412 2.114-5.103-.309-10.952-5.412-13.066l-5.39-2.233c-1.209-.5-2.438-.918-3.681-1.253v-5.473c-.528-13.268-19.477-13.258-20 0v7.092c-7.016 3.138-12.467 8.73-15.406 15.827-3.05 7.362-3.042 15.491.022 22.888 3.063 7.397 8.806 13.15 16.168 16.201l10.778 4.463c5.052 2.093 7.459 7.905 5.366 12.958-1.005 2.427-2.914 4.326-5.375 5.345s-5.154 1.027-7.582.022l-5.389-2.232c-5.101-2.113-10.952.31-13.065 5.412-2.114 5.103.31 10.952 5.412 13.065l5.389 2.232c1.209.501 2.438.918 3.682 1.254v5.473c.528 13.268 19.477 13.258 20 0v-7.092c7.015-3.138 12.467-8.73 15.407-15.827 6.312-15.239-.95-32.774-16.191-39.088z"/></g></svg>