<svg height="512" viewBox="0 0 74 74" width="512" xmlns="http://www.w3.org/2000/svg"><g id="Numbers"><text fill="rgb(0,0,0)" font-family="ArialMT, Arial" font-size="18" transform="translate(31.995 -141.877)">2<tspan x="-5.005" y="124">12</tspan><tspan x="-5.005" y="248">22</tspan><tspan x="-5.005" y="372">32</tspan><tspan x="-5.005" y="496">42</tspan><tspan x="-5.005" y="620">52</tspan><tspan x="-5.005" y="744">62</tspan><tspan x="-5.005" y="868">72</tspan><tspan x="-5.005" y="992">82</tspan><tspan x="-5.005" y="1116">92</tspan><tspan x="-10.011" y="1240">102</tspan><tspan letter-spacing="-.074em" x="-9.343" y="1364">1</tspan><tspan x="-.668" y="1364">12</tspan><tspan x="-10.011" y="1488">122</tspan><tspan x="-10.011" y="1612">132</tspan><tspan x="-10.011" y="1736">142</tspan><tspan x="-10.011" y="1860">152</tspan><tspan x="-10.011" y="1984">162</tspan><tspan x="-10.011" y="2108">172</tspan><tspan x="-10.011" y="2232">182</tspan><tspan x="-10.011" y="2356">192</tspan><tspan x="-10.011" y="2480">202</tspan><tspan x="-10.011" y="2604">212</tspan><tspan x="-10.011" y="2728">222</tspan><tspan x="-10.011" y="2852">232</tspan><tspan x="-10.011" y="2976">242</tspan><tspan x="-10.011" y="3100">252</tspan><tspan x="-10.011" y="3224">262</tspan><tspan x="-10.011" y="3348">272</tspan><tspan x="-10.011" y="3472">282</tspan><tspan x="-10.011" y="3596">292</tspan></text></g><g id="Icons"><path d="m2.722 38.8a1 1 0 0 1 -1-1v-4.42a1 1 0 0 1 2 0v4.42a1 1 0 0 1 -1 1z"/><path d="m60.14 4h-2.9a1 1 0 0 1 0-2h2.9a1 1 0 0 1 0 2z"/><path d="m70.73 29.6h-25.6a1 1 0 0 1 -1-1v-25.6a1 1 0 0 1 1-1h5.11a1 1 0 0 1 0 2h-4.11v23.6h23.6v-23.6h-2.59a1 1 0 0 1 0-2h3.59a1 1 0 0 1 1 1v25.6a1 1 0 0 1 -1 1z"/><path d="m63.327 22.2h-10.8a1 1 0 0 1 -1-1v-10.8a1 1 0 0 1 1-1h10.8a1 1 0 0 1 1 1v10.8a1 1 0 0 1 -1 1zm-9.8-2h8.8v-8.8h-8.8z"/><path d="m28.326 29.6h-25.604a1 1 0 0 1 -1-1v-25.6a1 1 0 0 1 1-1h25.6a1 1 0 0 1 1 1v25.6a1 1 0 0 1 -.996 1zm-24.6-2h23.6v-23.6h-23.604z"/><path d="m20.923 22.2h-10.8a1 1 0 0 1 -1-1v-10.8a1 1 0 0 1 1-1h10.8a1 1 0 0 1 1 1v10.8a1 1 0 0 1 -1 1zm-9.8-2h8.8v-8.8h-8.8z"/><path d="m28.326 72h-25.604a1 1 0 0 1 -1-1v-25.6a1 1 0 0 1 1-1h25.6a1 1 0 0 1 1 1v25.6a1 1 0 0 1 -.996 1zm-24.6-2h23.6v-23.6h-23.604z"/><path d="m20.923 64.6h-10.8a1 1 0 0 1 -1-1v-10.8a1 1 0 0 1 1-1h10.8a1 1 0 0 1 1 1v10.8a1 1 0 0 1 -1 1zm-9.8-2h8.8v-8.8h-8.8z"/><path d="m45.126 72a1 1 0 0 1 -1-1v-25.6a1 1 0 0 1 1-1h25.6a1 1 0 0 1 0 2h-24.6v24.6a1 1 0 0 1 -1 1z"/><path d="m37.535 64.045a1 1 0 0 1 -1-1v-9.106a1 1 0 0 1 1-1h14.255v-7.539a1 1 0 0 1 2 0v8.543a1 1 0 0 1 -1 1h-14.255v8.106a1 1 0 0 1 -1 .996z"/><path d="m53.868 72a1 1 0 0 1 -1-1v-9.676a1 1 0 0 1 1-1h6.438v-7.3a1 1 0 0 1 1-1h9.972a1 1 0 0 1 0 2h-8.972v7.3a1 1 0 0 1 -1 1h-6.438v8.676a1 1 0 0 1 -1 1z"/><path d="m67.02 72a1 1 0 0 1 -1-1v-8.22a1 1 0 0 1 2 0v8.22a1 1 0 0 1 -1 1z"/><path d="m71.278 40.493h-13.35a1 1 0 0 1 0-2h13.35a1 1 0 0 1 0 2z"/><path d="m64.6 40.493a1 1 0 0 1 -1-1v-5.606a1 1 0 0 1 2 0v5.606a1 1 0 0 1 -1 1z"/><path d="m49.555 40.493h-30.887a1 1 0 0 1 -1-1v-4.175h-5.868v3.906a1 1 0 0 1 -1 1h-5.123a1 1 0 0 1 0-2h4.123v-3.906a1 1 0 0 1 1-1h7.87a1 1 0 0 1 1 1v4.175h28.885v-4.175a1 1 0 0 1 1-1h8.373a1 1 0 0 1 0 2h-7.373v4.175a1 1 0 0 1 -1 1z"/><path d="m40.607 40.493h-8.625a1 1 0 0 1 -1-1v-5.875a1 1 0 1 1 2 0v4.875h6.625v-4.875a1 1 0 1 1 2 0v5.875a1 1 0 0 1 -1 1z"/><path d="m36.941 26.424a1 1 0 0 1 -1-1v-11a1 1 0 1 1 2 0v11a1 1 0 0 1 -1 1z"/><path d="m36.941 9.067a1 1 0 0 1 -1-1v-3.881a1 1 0 0 1 2 0v3.881a1 1 0 0 1 -1 1z"/></g></svg>